<svg width="93" height="108" viewBox="0 0 93 108" fill="none" xmlns="http://www.w3.org/2000/svg">
<path d="M66.1731 72C65.2244 72 64.3146 71.6207 63.6438 70.9456C62.973 70.2704 62.5962 69.3548 62.5962 68.4V64.8C62.5962 62.8904 61.8425 61.0591 60.5009 59.7088C59.1593 58.3585 57.3396 57.6 55.4423 57.6C54.968 57.6 54.5131 57.7896 54.1777 58.1272C53.8423 58.4647 53.6539 58.9226 53.6539 59.4C53.6539 59.8774 53.8423 60.3352 54.1777 60.6728C54.5131 61.0103 54.968 61.2 55.4423 61.2C56.391 61.2 57.3008 61.5793 57.9716 62.2544C58.6424 62.9295 59.0193 63.8452 59.0193 64.8V68.4C59.0187 69.4221 59.235 70.4326 59.6537 71.3639C60.0724 72.2951 60.6838 73.1257 61.4471 73.8C60.6838 74.4743 60.0724 75.3048 59.6537 76.2361C59.235 77.1673 59.0187 78.1778 59.0193 79.2V82.8C59.0193 83.7548 58.6424 84.6704 57.9716 85.3456C57.3008 86.0207 56.391 86.4 55.4423 86.4C54.968 86.4 54.5131 86.5896 54.1777 86.9272C53.8423 87.2647 53.6539 87.7226 53.6539 88.2C53.6539 88.6774 53.8423 89.1352 54.1777 89.4728C54.5131 89.8103 54.968 90 55.4423 90C57.3396 90 59.1593 89.2414 60.5009 87.8911C61.8425 86.5409 62.5962 84.7095 62.5962 82.8V79.2C62.5962 78.2452 62.973 77.3295 63.6438 76.6544C64.3146 75.9793 65.2244 75.6 66.1731 75.6C66.6474 75.6 67.1023 75.4103 67.4377 75.0728C67.7731 74.7352 67.9616 74.2774 67.9616 73.8C67.9616 73.3226 67.7731 72.8647 67.4377 72.5272C67.1023 72.1896 66.6474 72 66.1731 72Z" fill="#00D8FF"/>
<path d="M26.827 64.8C26.827 63.8452 27.2038 62.9295 27.8746 62.2544C28.5454 61.5793 29.4552 61.2 30.4039 61.2C30.8782 61.2 31.3331 61.0103 31.6685 60.6728C32.0039 60.3352 32.1923 59.8774 32.1923 59.4C32.1923 58.9226 32.0039 58.4647 31.6685 58.1272C31.3331 57.7896 30.8782 57.6 30.4039 57.6C28.5066 57.6 26.6869 58.3585 25.3453 59.7088C24.0037 61.0591 23.25 62.8904 23.25 64.8V68.4C23.25 69.3548 22.8732 70.2704 22.2024 70.9456C21.5316 71.6207 20.6218 72 19.6731 72C19.1988 72 18.7439 72.1896 18.4085 72.5272C18.0731 72.8647 17.8846 73.3226 17.8846 73.8C17.8846 74.2774 18.0731 74.7352 18.4085 75.0728C18.7439 75.4103 19.1988 75.6 19.6731 75.6C20.6218 75.6 21.5316 75.9793 22.2024 76.6544C22.8732 77.3295 23.25 78.2452 23.25 79.2V82.8C23.25 84.7095 24.0037 86.5409 25.3453 87.8911C26.6869 89.2414 28.5066 90 30.4039 90C30.8782 90 31.3331 89.8103 31.6685 89.4728C32.0039 89.1352 32.1923 88.6774 32.1923 88.2C32.1923 87.7226 32.0039 87.2647 31.6685 86.9272C31.3331 86.5896 30.8782 86.4 30.4039 86.4C29.4552 86.4 28.5454 86.0207 27.8746 85.3456C27.2038 84.6704 26.827 83.7548 26.827 82.8V79.2C26.8275 78.1778 26.6112 77.1673 26.1925 76.2361C25.7738 75.3048 25.1624 74.4743 24.3991 73.8C25.1624 73.1257 25.7738 72.2951 26.1925 71.3639C26.6112 70.4326 26.8275 69.4221 26.827 68.4V64.8Z" fill="#00D8FF"/>
<path d="M91.2115 0H8.94231C8.46798 0 8.01308 0.189642 7.67767 0.527208C7.34227 0.864773 7.15385 1.32261 7.15385 1.8V7.2H1.78846C1.31413 7.2 0.85923 7.38964 0.523829 7.72721C0.188427 8.06477 0 8.52261 0 9V106.2C0 106.677 0.188427 107.135 0.523829 107.473C0.85923 107.81 1.31413 108 1.78846 108H84.0577C84.532 108 84.9869 107.81 85.3223 107.473C85.6577 107.135 85.8462 106.677 85.8462 106.2V100.8H91.2115C91.6859 100.8 92.1408 100.61 92.4762 100.273C92.8116 99.9352 93 99.4774 93 99V1.8C93 1.32261 92.8116 0.864773 92.4762 0.527208C92.1408 0.189642 91.6859 0 91.2115 0ZM8.94231 23.4C8.94231 21.0131 9.88444 18.7239 11.5614 17.036C13.2385 15.3482 15.513 14.4 17.8846 14.4H21.4615C21.9359 14.4 22.3908 14.5896 22.7262 14.9272C23.0616 15.2648 23.25 15.7226 23.25 16.2C23.25 16.6774 23.0616 17.1352 22.7262 17.4728C22.3908 17.8104 21.9359 18 21.4615 18H17.8846C16.4629 18.0042 15.1006 18.5744 14.0953 19.5862C13.09 20.598 12.5234 21.9691 12.5192 23.4V27C12.5234 28.4309 13.09 29.802 14.0953 30.8138C15.1006 31.8256 16.4629 32.3958 17.8846 32.4H21.4615C21.9359 32.4 22.3908 32.5896 22.7262 32.9272C23.0616 33.2648 23.25 33.7226 23.25 34.2C23.25 34.6774 23.0616 35.1352 22.7262 35.4728C22.3908 35.8104 21.9359 36 21.4615 36H17.8846C15.513 36 13.2385 35.0518 11.5614 33.364C9.88444 31.6761 8.94231 29.3869 8.94231 27V23.4ZM82.2692 104.4H3.57692V43.2H82.2692V104.4ZM34.875 27H33.0865C31.4264 27 29.8342 26.3363 28.6603 25.1548C27.4864 23.9733 26.8269 22.3709 26.8269 20.7C26.8269 19.0291 27.4864 17.4267 28.6603 16.2452C29.8342 15.0637 31.4264 14.4 33.0865 14.4H35.7692C37.191 14.4042 38.5533 14.9744 39.5586 15.9862C40.5639 16.998 41.1305 18.3691 41.1346 19.8C41.1346 20.2774 40.9462 20.7352 40.6108 21.0728C40.2754 21.4104 39.8205 21.6 39.3462 21.6C38.8718 21.6 38.4169 21.4104 38.0815 21.0728C37.7461 20.7352 37.5577 20.2774 37.5577 19.8C37.5577 19.3226 37.3693 18.8648 37.0339 18.5272C36.6985 18.1896 36.2436 18 35.7692 18H33.0865C32.375 18 31.6927 18.2845 31.1896 18.7908C30.6865 19.2972 30.4038 19.9839 30.4038 20.7C30.4038 21.4161 30.6865 22.1028 31.1896 22.6092C31.6927 23.1155 32.375 23.4 33.0865 23.4H34.875C36.5352 23.4 38.1273 24.0637 39.3012 25.2452C40.4751 26.4267 41.1346 28.0291 41.1346 29.7C41.1346 31.3709 40.4751 32.9733 39.3012 34.1548C38.1273 35.3363 36.5352 36 34.875 36H32.1923C30.7706 35.9958 29.4083 35.4256 28.403 34.4138C27.3977 33.402 26.8311 32.0309 26.8269 30.6C26.8269 30.1226 27.0153 29.6648 27.3508 29.3272C27.6862 28.9896 28.1411 28.8 28.6154 28.8C29.0897 28.8 29.5446 28.9896 29.88 29.3272C30.2154 29.6648 30.4038 30.1226 30.4038 30.6C30.4038 31.0774 30.5923 31.5352 30.9277 31.8728C31.2631 32.2104 31.718 32.4 32.1923 32.4H34.875C35.5865 32.4 36.2688 32.1155 36.7719 31.6092C37.2751 31.1028 37.5577 30.4161 37.5577 29.7C37.5577 28.9839 37.2751 28.2972 36.7719 27.7908C36.2688 27.2845 35.5865 27 34.875 27ZM52.7596 27H50.9712C49.311 27 47.7188 26.3363 46.5449 25.1548C45.371 23.9733 44.7115 22.3709 44.7115 20.7C44.7115 19.0291 45.371 17.4267 46.5449 16.2452C47.7188 15.0637 49.311 14.4 50.9712 14.4H53.6538C55.0756 14.4042 56.4379 14.9744 57.4432 15.9862C58.4485 16.998 59.0151 18.3691 59.0192 19.8C59.0192 20.2774 58.8308 20.7352 58.4954 21.0728C58.16 21.4104 57.7051 21.6 57.2308 21.6C56.7564 21.6 56.3015 21.4104 55.9661 21.0728C55.6307 20.7352 55.4423 20.2774 55.4423 19.8C55.4423 19.3226 55.2539 18.8648 54.9185 18.5272C54.5831 18.1896 54.1282 18 53.6538 18H50.9712C50.2597 18 49.5773 18.2845 49.0742 18.7908C48.5711 19.2972 48.2885 19.9839 48.2885 20.7C48.2885 21.4161 48.5711 22.1028 49.0742 22.6092C49.5773 23.1155 50.2597 23.4 50.9712 23.4H52.7596C54.4198 23.4 56.0119 24.0637 57.1858 25.2452C58.3597 26.4267 59.0192 28.0291 59.0192 29.7C59.0192 31.3709 58.3597 32.9733 57.1858 34.1548C56.0119 35.3363 54.4198 36 52.7596 36H50.0769C48.6552 35.9958 47.2929 35.4256 46.2876 34.4138C45.2823 33.402 44.7157 32.0309 44.7115 30.6C44.7115 30.1226 44.9 29.6648 45.2354 29.3272C45.5708 28.9896 46.0257 28.8 46.5 28.8C46.9743 28.8 47.4292 28.9896 47.7646 29.3272C48.1 29.6648 48.2885 30.1226 48.2885 30.6C48.2885 31.0774 48.4769 31.5352 48.8123 31.8728C49.1477 32.2104 49.6026 32.4 50.0769 32.4H52.7596C53.4711 32.4 54.1535 32.1155 54.6566 31.6092C55.1597 31.1028 55.4423 30.4161 55.4423 29.7C55.4423 28.9839 55.1597 28.2972 54.6566 27.7908C54.1535 27.2845 53.4711 27 52.7596 27ZM67.9615 23.4V13.338L79.7475 25.2H69.75C69.2757 25.2 68.8208 25.0104 68.4854 24.6728C68.15 24.3352 67.9615 23.8774 67.9615 23.4ZM89.4231 97.2H85.8462V27C85.8427 26.5228 85.657 26.0652 85.3275 25.722L67.4429 7.722C67.1019 7.39037 66.6472 7.20346 66.1731 7.2H10.7308V3.6H89.4231V97.2Z" fill="#00D8FF"/>
</svg>
