<svg width="94" height="108" viewBox="0 0 94 108" fill="none" xmlns="http://www.w3.org/2000/svg">
<path d="M30.1839 57.969C29.8027 57.6797 29.3218 57.5529 28.8468 57.6166C28.3718 57.6804 27.9416 57.9293 27.6509 58.3087L16.6375 72.7087C16.3975 73.0223 16.2675 73.4057 16.2675 73.8C16.2675 74.1943 16.3975 74.5777 16.6375 74.8912L27.6509 89.2912C27.9416 89.6711 28.3718 89.9204 28.8471 89.9843C29.3223 90.0482 29.8036 89.9215 30.1851 89.6321C30.5665 89.3427 30.8169 88.9142 30.8811 88.441C30.9453 87.9678 30.818 87.4886 30.5274 87.1087L20.3591 73.8L30.5274 60.4912C30.8177 60.1114 30.9446 59.6323 30.8802 59.1593C30.8158 58.6863 30.5653 58.2581 30.1839 57.969Z" fill="#FF914D"/>
<path d="M59.0844 58.3065C58.7932 57.9273 58.3625 57.6788 57.8873 57.6157C57.412 57.5526 56.9311 57.6801 56.5502 57.9701C56.1694 58.2601 55.9198 58.6889 55.8565 59.1621C55.7931 59.6354 55.9212 60.1143 56.2124 60.4935L66.4191 73.8L56.2124 87.1065C55.9212 87.4857 55.7931 87.9646 55.8565 88.4379C55.9198 88.9111 56.1694 89.3399 56.5502 89.6299C56.9311 89.9199 57.412 90.0474 57.8873 89.9843C58.3625 89.9212 58.7932 89.6727 59.0844 89.2935L70.1294 74.8935C70.3705 74.5795 70.5012 74.1953 70.5012 73.8C70.5012 73.4047 70.3705 73.0205 70.1294 72.7065L59.0844 58.3065Z" fill="#FF914D"/>
<path d="M46.9503 57.6405C46.482 57.5388 45.9923 57.6265 45.5889 57.8843C45.1855 58.1422 44.9014 58.5489 44.7992 59.0153L38.4722 87.8153C38.412 88.0494 38.3997 88.2933 38.4361 88.5323C38.4726 88.7712 38.557 89.0005 38.6843 89.2063C38.8117 89.4121 38.9793 89.5902 39.1773 89.7301C39.3753 89.87 39.5996 89.9687 39.8367 90.0204C40.0739 90.0721 40.319 90.0757 40.5576 90.031C40.7962 89.9864 41.0233 89.8943 41.2253 89.7603C41.4274 89.6263 41.6003 89.4531 41.7337 89.2512C41.8671 89.0492 41.9582 88.8226 42.0018 88.5847L48.3287 59.7847C48.3796 59.5538 48.3843 59.3152 48.3426 59.0825C48.3009 58.8497 48.2136 58.6274 48.0856 58.4283C47.9576 58.2292 47.7914 58.0571 47.5966 57.922C47.4018 57.7868 47.1822 57.6911 46.9503 57.6405Z" fill="#FF914D"/>
<path d="M92.1923 0H9.03846C8.55903 0 8.09924 0.189642 7.76023 0.527208C7.42122 0.864773 7.23077 1.32261 7.23077 1.8V7.2H1.80769C1.32826 7.2 0.868469 7.38964 0.529461 7.72721C0.190453 8.06477 0 8.52261 0 9V106.2C0 106.677 0.190453 107.135 0.529461 107.473C0.868469 107.81 1.32826 108 1.80769 108H84.9615C85.441 108 85.9008 107.81 86.2398 107.473C86.5788 107.135 86.7692 106.677 86.7692 106.2V100.8H92.1923C92.6717 100.8 93.1315 100.61 93.4705 100.273C93.8095 99.9352 94 99.4774 94 99V1.8C94 1.32261 93.8095 0.864773 93.4705 0.527208C93.1315 0.189642 92.6717 0 92.1923 0ZM9.03846 16.2C9.03846 15.7226 9.22891 15.2648 9.56792 14.9272C9.90693 14.5896 10.3667 14.4 10.8462 14.4C11.3256 14.4 11.7854 14.5896 12.1244 14.9272C12.4634 15.2648 12.6538 15.7226 12.6538 16.2V23.4H19.8846V16.2C19.8846 15.7226 20.0751 15.2648 20.4141 14.9272C20.7531 14.5896 21.2129 14.4 21.6923 14.4C22.1717 14.4 22.6315 14.5896 22.9705 14.9272C23.3095 15.2648 23.5 15.7226 23.5 16.2V34.2C23.5 34.6774 23.3095 35.1352 22.9705 35.4728C22.6315 35.8104 22.1717 36 21.6923 36C21.2129 36 20.7531 35.8104 20.4141 35.4728C20.0751 35.1352 19.8846 34.6774 19.8846 34.2V27H12.6538V34.2C12.6538 34.6774 12.4634 35.1352 12.1244 35.4728C11.7854 35.8104 11.3256 36 10.8462 36C10.3667 36 9.90693 35.8104 9.56792 35.4728C9.22891 35.1352 9.03846 34.6774 9.03846 34.2V16.2ZM83.1538 104.4H3.61538V43.2H83.1538V104.4ZM28.9231 18C28.4436 18 27.9839 17.8104 27.6448 17.4728C27.3058 17.1352 27.1154 16.6774 27.1154 16.2C27.1154 15.7226 27.3058 15.2648 27.6448 14.9272C27.9839 14.5896 28.4436 14.4 28.9231 14.4H39.7692C40.2487 14.4 40.7085 14.5896 41.0475 14.9272C41.3865 15.2648 41.5769 15.7226 41.5769 16.2C41.5769 16.6774 41.3865 17.1352 41.0475 17.4728C40.7085 17.8104 40.2487 18 39.7692 18H36.1538V34.2C36.1538 34.6774 35.9634 35.1352 35.6244 35.4728C35.2854 35.8104 34.8256 36 34.3462 36C33.8667 36 33.4069 35.8104 33.0679 35.4728C32.7289 35.1352 32.5385 34.6774 32.5385 34.2V18H28.9231ZM53.9777 26.118C53.3269 27.225 51.5192 27.225 50.8685 26.118L48.8077 22.698V34.2C48.8077 34.6774 48.6172 35.1352 48.2782 35.4728C47.9392 35.8104 47.4794 36 47 36C46.5206 36 46.0608 35.8104 45.7218 35.4728C45.3828 35.1352 45.1923 34.6774 45.1923 34.2V16.2C45.1924 15.8056 45.3226 15.4222 45.5628 15.1087C45.8031 14.7952 46.14 14.5689 46.522 14.4646C46.9039 14.3603 47.3097 14.3838 47.6769 14.5315C48.0442 14.6792 48.3525 14.9429 48.5546 15.282L52.4231 21.708L56.2915 15.282C56.4936 14.9429 56.802 14.6792 57.1692 14.5315C57.5365 14.3838 57.9422 14.3603 58.3242 14.4646C58.7061 14.5689 59.0431 14.7952 59.2833 15.1087C59.5236 15.4222 59.6537 15.8056 59.6538 16.2V34.2C59.6538 34.6774 59.4634 35.1352 59.1244 35.4728C58.7854 35.8104 58.3256 36 57.8462 36C57.3667 36 56.9069 35.8104 56.5679 35.4728C56.2289 35.1352 56.0385 34.6774 56.0385 34.2V22.698L53.9777 26.118ZM68.6923 23.4V13.338L80.605 25.2H70.5C70.0206 25.2 69.5608 25.0104 69.2218 24.6728C68.8828 24.3352 68.6923 23.8774 68.6923 23.4ZM90.3846 97.2H86.7692V27C86.7658 26.5228 86.578 26.0652 86.245 25.722L68.1681 7.722C67.8234 7.39037 67.3639 7.20346 66.8846 7.2H10.8462V3.6H90.3846V97.2Z" fill="#FF914D"/>
</svg>
