<svg width="94" height="108" viewBox="0 0 94 108" fill="none" xmlns="http://www.w3.org/2000/svg">
<path d="M66.8846 72C65.9258 72 65.0062 71.6207 64.3282 70.9456C63.6501 70.2704 63.2692 69.3548 63.2692 68.4V64.8C63.2692 62.8904 62.5074 61.0591 61.1514 59.7088C59.7954 58.3585 57.9562 57.6 56.0385 57.6C55.559 57.6 55.0992 57.7896 54.7602 58.1272C54.4212 58.4647 54.2308 58.9226 54.2308 59.4C54.2308 59.8774 54.4212 60.3352 54.7602 60.6728C55.0992 61.0103 55.559 61.2 56.0385 61.2C56.9973 61.2 57.9169 61.5793 58.5949 62.2544C59.2729 62.9295 59.6539 63.8452 59.6539 64.8V68.4C59.6533 69.4221 59.8719 70.4326 60.2951 71.3639C60.7183 72.2951 61.3363 73.1257 62.1078 73.8C61.3363 74.4743 60.7183 75.3048 60.2951 76.2361C59.8719 77.1673 59.6533 78.1778 59.6539 79.2V82.8C59.6539 83.7548 59.2729 84.6704 58.5949 85.3456C57.9169 86.0207 56.9973 86.4 56.0385 86.4C55.559 86.4 55.0992 86.5896 54.7602 86.9272C54.4212 87.2647 54.2308 87.7226 54.2308 88.2C54.2308 88.6774 54.4212 89.1352 54.7602 89.4728C55.0992 89.8103 55.559 90 56.0385 90C57.9562 90 59.7954 89.2414 61.1514 87.8911C62.5074 86.5409 63.2692 84.7095 63.2692 82.8V79.2C63.2692 78.2452 63.6501 77.3295 64.3282 76.6544C65.0062 75.9793 65.9258 75.6 66.8846 75.6C67.364 75.6 67.8238 75.4103 68.1629 75.0728C68.5019 74.7352 68.6923 74.2774 68.6923 73.8C68.6923 73.3226 68.5019 72.8647 68.1629 72.5272C67.8238 72.1896 67.364 72 66.8846 72Z" fill="#FFDE59"/>
<path d="M27.1154 64.8C27.1154 63.8452 27.4963 62.9295 28.1743 62.2544C28.8523 61.5793 29.7719 61.2 30.7308 61.2C31.2102 61.2 31.67 61.0103 32.009 60.6728C32.348 60.3352 32.5385 59.8774 32.5385 59.4C32.5385 58.9226 32.348 58.4647 32.009 58.1272C31.67 57.7896 31.2102 57.6 30.7308 57.6C28.8131 57.6 26.9739 58.3585 25.6179 59.7088C24.2618 61.0591 23.5 62.8904 23.5 64.8V68.4C23.5 69.3548 23.1191 70.2704 22.4411 70.9456C21.7631 71.6207 20.8435 72 19.8846 72C19.4052 72 18.9454 72.1896 18.6064 72.5272C18.2674 72.8647 18.0769 73.3226 18.0769 73.8C18.0769 74.2774 18.2674 74.7352 18.6064 75.0728C18.9454 75.4103 19.4052 75.6 19.8846 75.6C20.8435 75.6 21.7631 75.9793 22.4411 76.6544C23.1191 77.3295 23.5 78.2452 23.5 79.2V82.8C23.5 84.7095 24.2618 86.5409 25.6179 87.8911C26.9739 89.2414 28.8131 90 30.7308 90C31.2102 90 31.67 89.8103 32.009 89.4728C32.348 89.1352 32.5385 88.6774 32.5385 88.2C32.5385 87.7226 32.348 87.2647 32.009 86.9272C31.67 86.5896 31.2102 86.4 30.7308 86.4C29.7719 86.4 28.8523 86.0207 28.1743 85.3456C27.4963 84.6704 27.1154 83.7548 27.1154 82.8V79.2C27.116 78.1778 26.8973 77.1673 26.4742 76.2361C26.051 75.3048 25.4329 74.4743 24.6615 73.8C25.4329 73.1257 26.051 72.2951 26.4742 71.3639C26.8973 70.4326 27.116 69.4221 27.1154 68.4V64.8Z" fill="#FFDE59"/>
<path d="M43.3846 70.2C44.383 70.2 45.1923 69.3941 45.1923 68.4C45.1923 67.4059 44.383 66.6 43.3846 66.6C42.3863 66.6 41.5769 67.4059 41.5769 68.4C41.5769 69.3941 42.3863 70.2 43.3846 70.2Z" fill="#FFDE59"/>
<path d="M43.3846 77.4C42.9052 77.4 42.4454 77.5897 42.1064 77.9272C41.7674 78.2648 41.5769 78.7226 41.5769 79.2C41.5769 79.6774 41.3865 80.1353 41.0475 80.4728C40.7085 80.8104 40.2487 81 39.7692 81C39.2898 81 38.83 81.1897 38.491 81.5272C38.152 81.8648 37.9615 82.3226 37.9615 82.8C37.9615 83.2774 38.152 83.7353 38.491 84.0728C38.83 84.4104 39.2898 84.6 39.7692 84.6C41.2075 84.6 42.5869 84.0311 43.6039 83.0184C44.621 82.0057 45.1923 80.6322 45.1923 79.2C45.1923 78.7226 45.0019 78.2648 44.6629 77.9272C44.3238 77.5897 43.8641 77.4 43.3846 77.4Z" fill="#FFDE59"/>
<path d="M92.1923 0H9.03846C8.55903 0 8.09924 0.189642 7.76023 0.527208C7.42122 0.864773 7.23077 1.32261 7.23077 1.8V7.2H1.80769C1.32826 7.2 0.868469 7.38964 0.529461 7.72721C0.190453 8.06477 0 8.52261 0 9V106.2C0 106.677 0.190453 107.135 0.529461 107.473C0.868469 107.81 1.32826 108 1.80769 108H84.9615C85.441 108 85.9008 107.81 86.2398 107.473C86.5788 107.135 86.7692 106.677 86.7692 106.2V100.8H92.1923C92.6717 100.8 93.1315 100.61 93.4705 100.273C93.8095 99.9352 94 99.4774 94 99V1.8C94 1.32261 93.8095 0.864773 93.4705 0.527208C93.1315 0.189642 92.6717 0 92.1923 0ZM83.1538 104.4H3.61538V43.2H83.1538V104.4ZM19.8846 28.8C19.8846 28.3226 20.0751 27.8648 20.4141 27.5272C20.7531 27.1896 21.2129 27 21.6923 27C22.1717 27 22.6315 27.1896 22.9705 27.5272C23.3095 27.8648 23.5 28.3226 23.5 28.8C23.5 29.7548 23.8809 30.6705 24.5589 31.3456C25.2369 32.0207 26.1565 32.4 27.1154 32.4C28.0742 32.4 28.9938 32.0207 29.6718 31.3456C30.3499 30.6705 30.7308 29.7548 30.7308 28.8V16.2C30.7308 15.7226 30.9212 15.2648 31.2602 14.9272C31.5992 14.5896 32.059 14.4 32.5385 14.4C33.0179 14.4 33.4777 14.5896 33.8167 14.9272C34.1557 15.2648 34.3462 15.7226 34.3462 16.2V28.8C34.3462 30.7096 33.5843 32.5409 32.2283 33.8912C30.8723 35.2414 29.0331 36 27.1154 36C25.1977 36 23.3585 35.2414 22.0025 33.8912C20.6464 32.5409 19.8846 30.7096 19.8846 28.8ZM46.0962 27H44.2885C42.6105 27 41.0012 26.3363 39.8146 25.1548C38.6281 23.9733 37.9615 22.3709 37.9615 20.7C37.9615 19.0291 38.6281 17.4267 39.8146 16.2452C41.0012 15.0637 42.6105 14.4 44.2885 14.4H47C48.437 14.4042 49.814 14.9744 50.8301 15.9862C51.8462 16.998 52.4189 18.3691 52.4231 19.8C52.4231 20.2774 52.2326 20.7352 51.8936 21.0728C51.5546 21.4104 51.0948 21.6 50.6154 21.6C50.136 21.6 49.6762 21.4104 49.3372 21.0728C48.9981 20.7352 48.8077 20.2774 48.8077 19.8C48.8077 19.3226 48.6172 18.8648 48.2782 18.5272C47.9392 18.1896 47.4794 18 47 18H44.2885C43.5693 18 42.8796 18.2845 42.3711 18.7908C41.8626 19.2972 41.5769 19.9839 41.5769 20.7C41.5769 21.4161 41.8626 22.1028 42.3711 22.6092C42.8796 23.1155 43.5693 23.4 44.2885 23.4H46.0962C47.7742 23.4 49.3834 24.0637 50.57 25.2452C51.7565 26.4267 52.4231 28.0291 52.4231 29.7C52.4231 31.3709 51.7565 32.9733 50.57 34.1548C49.3834 35.3363 47.7742 36 46.0962 36H43.3846C41.9476 35.9958 40.5707 35.4256 39.5545 34.4138C38.5384 33.402 37.9657 32.0309 37.9615 30.6C37.9615 30.1226 38.152 29.6648 38.491 29.3272C38.83 28.9896 39.2898 28.8 39.7692 28.8C40.2487 28.8 40.7085 28.9896 41.0475 29.3272C41.3865 29.6648 41.5769 30.1226 41.5769 30.6C41.5769 31.0774 41.7674 31.5352 42.1064 31.8728C42.4454 32.2104 42.9052 32.4 43.3846 32.4H46.0962C46.8153 32.4 47.505 32.1155 48.0135 31.6092C48.522 31.1028 48.8077 30.4161 48.8077 29.7C48.8077 28.9839 48.522 28.2972 48.0135 27.7908C47.505 27.2845 46.8153 27 46.0962 27ZM68.6923 23.4V13.338L80.605 25.2H70.5C70.0206 25.2 69.5608 25.0104 69.2218 24.6728C68.8828 24.3352 68.6923 23.8774 68.6923 23.4ZM90.3846 97.2H86.7692V27C86.7658 26.5228 86.578 26.0652 86.245 25.722L68.1681 7.722C67.8234 7.39037 67.3639 7.20346 66.8846 7.2H10.8462V3.6H90.3846V97.2Z" fill="#FFDE59"/>
</svg>
