<svg xmlns="http://www.w3.org/2000/svg" xmlns:xlink="http://www.w3.org/1999/xlink" preserveAspectRatio="xMidYMid meet" version="1.0" viewBox="-0.3 6.4 64.4 50.4" zoomAndPan="magnify" style="fill: rgb(0, 0, 0);" original_string_length="3737">
 <g id="__id111_sbbpqmqal"><path d="m55.094 35.56c-2.238 0.013-4.175 0.55-5.8 1.35-0.6-1.188-1.2-2.225-1.3-3-0.113-0.9-0.25-1.45-0.113-2.525s0.763-2.6 0.763-2.725c-0.012-0.113-0.138-0.663-1.425-0.675s-2.4 0.25-2.525 0.588a14.36 14.36 0 0 0 -0.538 1.913c-0.225 1.175-2.575 5.338-3.913 7.526-0.438-0.85-0.813-1.6-0.888-2.2-0.113-0.9-0.25-1.45-0.113-2.525s0.763-2.6 0.763-2.725c-0.012-0.113-0.138-0.663-1.425-0.675s-2.4 0.25-2.525 0.588-0.263 1.138-0.538 1.913c-0.263 0.775-3.388 7.726-4.2 9.538-0.413 0.925-0.775 1.663-1.038 2.163s-0.012 0.038-0.037 0.088l-0.35 0.663v0.012c-0.175 0.313-0.363 0.613-0.45 0.613-0.062 0-0.188-0.838 0.025-1.988 0.463-2.413 1.588-6.176 1.575-6.313 0-0.062 0.213-0.725-0.725-1.063-0.913-0.338-1.238 0.225-1.313 0.225s-0.138 0.2-0.138 0.2 1.013-4.238-1.938-4.238c-1.85 0-4.4 2.013-5.663 3.85l-6.376 3.488-0.138-0.15c-3.573-3.816-10.186-6.516-9.911-11.641 0.1-1.863 0.75-6.776 12.7-12.726 9.788-4.875 17.627-3.538 18.99-0.563 1.938 4.25-4.188 12.15-14.364 13.29-3.875 0.438-5.913-1.063-6.426-1.625-0.538-0.588-0.613-0.613-0.813-0.5-0.325 0.175-0.125 0.7 0 1.013 0.3 0.788 1.55 2.188 3.675 2.888 1.863 0.613 6.413 0.95 11.914-1.175 6.163-2.388 10.976-9.013 9.563-14.55-1.438-5.638-10.788-7.488-19.627-4.35-5.262 1.873-10.952 4.797-15.052 8.635-4.885 4.55-5.66 8.526-5.336 10.176 1.138 5.888 9.25 9.726 12.5 12.564l-0.45 0.25c-1.625 0.8-7.813 4.038-9.363 7.463-1.75 3.875 0.275 6.663 1.625 7.038 4.175 1.163 8.45-0.925 10.763-4.363 2.3-3.438 2.025-7.9 0.963-9.938l-0.038-0.075 1.275-0.75c0.825-0.488 1.638-0.938 2.35-1.325-0.4 1.088-0.688 2.375-0.838 4.25-0.175 2.2 0.725 5.05 1.913 6.176 0.525 0.488 1.15 0.5 1.538 0.5 1.375 0 2-1.138 2.688-2.5 0.85-1.663 1.6-3.588 1.6-3.588s-0.938 5.213 1.625 5.213c0.938 0 1.875-1.213 2.3-1.838v0.012s0.025-0.038 0.075-0.125c0.1-0.15 0.15-0.238 0.15-0.238v-0.025c0.375-0.65 1.213-2.138 2.463-4.6 1.613-3.175 3.163-7.15 3.163-7.15s0.15 0.975 0.613 2.575c0.275 0.95 0.875 1.988 1.338 3l-0.6 0.825 0.012 0.013a35.62 35.62 0 0 1 -0.988 1.25c-1.275 1.525-2.8 3.263-3 3.763-0.238 0.588-0.188 1.025 0.275 1.375 0.338 0.25 0.938 0.3 1.575 0.25 1.15-0.075 1.95-0.363 2.35-0.538a8.14 8.14 0 0 0 2.025 -1.063c1.25-0.925 2.013-2.238 1.938-3.988-0.038-0.963-0.35-1.913-0.738-2.813l0.338-0.5c1.975-2.888 3.5-6.063 3.5-6.063s0.15 0.975 0.613 2.575c0.238 0.813 0.713 1.7 1.138 2.575-1.85 1.513-3.013 3.263-3.413 4.413-0.738 2.125-0.163 3.088 0.925 3.313 0.488 0.1 1.188-0.125 1.713-0.35 0.65-0.213 1.438-0.575 2.163-1.113 1.25-0.925 2.45-2.213 2.388-3.95-0.038-0.8-0.25-1.588-0.538-2.338 1.575-0.65 3.613-1.025 6.2-0.713 5.563 0.65 6.663 4.125 6.45 5.575s-1.375 2.25-1.763 2.5c-0.388 0.238-0.513 0.325-0.475 0.5 0.05 0.263 0.225 0.25 0.563 0.2 0.463-0.075 2.925-1.188 3.025-3.863 0.15-3.438-3.113-7.188-8.9-7.15zm-42.904 14.465c-1.838 2.013-4.425 2.775-5.525 2.125-1.188-0.688-0.725-3.65 1.538-5.788 1.375-1.3 3.163-2.5 4.338-3.238l1.138-0.688c0.075-0.05 0.125-0.075 0.125-0.075 0.088-0.05 0.188-0.113 0.288-0.175 0.838 3.05 0.038 5.725-1.9 7.838zm13.44-9.138c-0.638 1.563-1.988 5.575-2.8 5.35-0.7-0.188-1.125-3.225-0.138-6.226 0.5-1.513 1.563-3.313 2.188-4.013 1.013-1.125 2.113-1.5 2.388-1.038 0.325 0.6-1.238 4.95-1.638 5.926zm11.088 5.3c-0.275 0.138-0.525 0.238-0.638 0.163-0.088-0.05 0.113-0.238 0.113-0.238s1.388-1.488 1.938-2.175l1.088-1.388v0.15c0 1.8-1.725 3-2.5 3.488zm8.55-1.95c-0.2-0.15-0.175-0.613 0.5-2.063 0.263-0.575 0.863-1.538 1.9-2.45 0.125 0.375 0.2 0.738 0.188 1.075-0.013 2.25-1.613 3.088-2.588 3.438z" style="fill: rgb(230, 114, 172);"/></g>
</svg>