<svg width="124" height="131" viewBox="0 0 124 131" fill="none" xmlns="http://www.w3.org/2000/svg">
<path d="M66.2572 95.3564C66.5543 94.1682 66.5543 92.6831 66.5543 91.1979C66.5543 89.7128 66.5543 88.5247 66.2572 87.0395L74.575 81.0989C75.4662 80.5048 75.7633 79.3167 75.1692 78.4256L67.1484 64.7622C66.5543 63.8711 65.6631 63.5741 64.7719 63.8711L55.563 68.3266C53.4835 66.5444 51.107 65.3563 48.4334 64.1682L47.5422 54.0691C47.5422 53.178 46.651 52.287 45.7599 52.287H30.0155C29.1243 52.287 28.2331 53.178 28.2331 54.0691L27.0448 64.4652C24.3713 65.3563 22.2918 66.8414 19.9153 68.6236L10.7063 64.4652C9.81514 64.1682 8.62688 64.4652 8.32982 65.3563L0.3091 79.0197C-0.285027 79.9108 0.0120361 81.0989 0.903227 81.693L9.22101 87.6336C8.92395 88.8217 8.92395 90.3068 8.92395 91.792C8.92395 93.2771 8.92395 94.4653 9.22101 95.9504L0.903227 101.891C0.0120361 102.485 -0.285027 103.673 0.3091 104.564L8.32982 118.228C8.92395 119.119 9.81514 119.416 10.7063 119.119L19.9153 114.96C21.9948 116.743 24.3713 117.931 27.0448 119.119L27.936 129.218C27.936 130.109 28.8272 131 29.7184 131H45.4628C46.354 131 47.2452 130.109 47.2452 129.218L48.1364 119.119C50.8099 118.228 52.8894 116.743 55.2659 114.96L64.4749 119.119C65.3661 119.416 66.5543 119.119 66.8514 118.228L74.8721 104.564C75.4662 103.673 75.1692 102.485 74.278 101.891L66.2572 95.3564ZM37.7391 106.049C29.4213 106.049 22.8859 99.5148 22.8859 91.1979C22.8859 82.8811 29.4213 76.3464 37.7391 76.3464C46.0569 76.3464 52.5923 82.8811 52.5923 91.1979C52.5923 99.5148 46.0569 106.049 37.7391 106.049Z" fill="#DDD"/>
<path d="M114.862 39.3703C115.157 37.9101 115.157 36.742 115.157 35.5739C115.157 34.4058 115.157 33.2377 114.862 31.7775L122.222 26.521C123.105 25.9369 123.105 25.0609 122.811 24.1848L115.451 11.6275C114.862 10.7514 113.979 10.4594 113.096 11.0435L104.559 14.8398C102.498 13.3797 100.437 12.2116 98.0824 11.0435L97.1992 1.99057C97.4936 1.11448 96.9048 0.530426 96.0217 0.530426H81.5969C80.7138 0.530426 79.8306 1.11448 79.8306 1.99057L78.9475 11.0435C76.5924 11.9196 74.5317 13.0877 72.4711 14.8398L63.934 11.0435C63.0508 10.7514 62.1677 11.0435 61.5789 11.6275L54.2193 24.1848C53.6306 25.0609 53.925 25.9369 54.8081 26.521L62.1677 31.7775V35.5739C62.1677 36.742 62.1677 37.9101 62.4621 39.3703L55.1025 44.6268C54.2193 45.2109 54.2193 46.0869 54.5137 46.963L61.8733 59.5203C62.4621 60.3964 63.3452 60.6884 64.2284 60.1043L72.7655 56.308C74.8261 57.7681 76.8868 58.9362 79.2419 60.1043L80.125 69.1572C80.125 70.0333 81.0082 70.6174 81.8913 70.6174H96.3161C97.1992 70.6174 98.0824 70.0333 98.0824 69.1572L98.9655 60.1043C101.321 59.2283 103.381 58.0601 105.442 56.308L113.979 60.1043C114.862 60.3964 115.745 60.1043 116.334 59.5203L123.694 46.963C124.282 46.0869 123.988 45.2109 123.105 44.6268L114.862 39.3703ZM88.6621 50.1754C80.4194 50.1754 73.943 43.7507 73.943 35.5739C73.943 27.3971 80.4194 20.9725 88.6621 20.9725C96.9048 20.9725 103.381 27.3971 103.381 35.5739C103.381 43.7507 96.9048 50.1754 88.6621 50.1754Z" fill="#DDD"/>
</svg>
